<svg width="191" height="246" viewBox="0 0 191 246" fill="none" xmlns="http://www.w3.org/2000/svg">
<g clip-path="url(#clip0_19_1952)">
<path d="M7.71204 5.77296C-1.73024 14.2026 -2.62715 28.7767 5.70874 38.3253C14.0446 47.8737 28.4566 48.7808 37.899 40.3511C47.3412 31.9215 48.2382 17.3473 39.9023 7.7988C31.5664 -1.74969 17.1544 -2.65669 7.71204 5.77296ZM83.3532 92.4175C73.9109 100.847 73.014 115.422 81.3499 124.969C89.6857 134.518 104.097 135.425 113.54 126.996C122.983 118.566 123.88 103.992 115.543 94.4434C107.208 84.8948 92.7954 83.9878 83.3532 92.4175ZM29.055 36.7544C30.618 38.5448 33.3202 38.7148 35.0907 37.1343C36.8611 35.5537 37.0293 32.8211 35.4663 31.0307L29.055 36.7544ZM54.3766 52.6919C52.8136 50.9016 50.1114 50.7315 48.3409 52.312C46.5705 53.8926 46.4023 56.6253 47.9652 58.4156L54.3766 52.6919ZM66.8756 80.0768C68.4385 81.8671 71.1408 82.0372 72.9113 80.4565C74.6817 78.876 74.8499 76.1434 73.2869 74.353L66.8756 80.0768ZM92.1971 96.0141C90.6342 94.2238 87.9318 94.0537 86.1614 95.6343C84.391 97.2147 84.2228 99.9476 85.7858 101.738L92.1971 96.0141ZM19.5998 25.9239L29.055 36.7544L35.4663 31.0307L26.0112 20.2002L19.5998 25.9239ZM47.9652 58.4156L66.8756 80.0768L73.2869 74.353L54.3766 52.6919L47.9652 58.4156ZM85.7858 101.738L95.2411 112.569L101.652 106.844L92.1971 96.0141L85.7858 101.738Z" fill="#648FFF"/>
<path d="M182.591 5.1768C172.824 -2.86422 158.459 -1.37506 150.507 8.50295C142.555 18.3809 144.028 32.9072 153.797 40.9482C163.564 48.9893 177.929 47.5 185.881 37.622C193.833 27.7441 192.36 13.2178 182.591 5.1768ZM156.159 31.1631C154.668 33.0153 154.945 35.7389 156.776 37.2466C158.608 38.7543 161.301 38.4751 162.792 36.623L156.159 31.1631ZM145.355 58.2841C146.846 56.432 146.57 53.7083 144.738 52.2006C142.907 50.6929 140.214 50.9721 138.723 52.8243L145.355 58.2841ZM121.286 74.4854C119.795 76.3375 120.072 79.0612 121.903 80.5689C123.734 82.0765 126.428 81.7974 127.919 79.9453L121.286 74.4854ZM110.482 101.607C111.973 99.7539 111.696 97.0306 109.865 95.5228C108.034 94.0152 105.34 94.2944 103.849 96.1466L110.482 101.607ZM164.878 20.3326L156.159 31.1631L162.792 36.623L171.51 25.7924L164.878 20.3326ZM138.723 52.8243L121.286 74.4854L127.919 79.9453L145.355 58.2841L138.723 52.8243ZM103.849 96.1466L95.1304 106.977L101.763 112.437L110.482 101.607L103.849 96.1466Z" fill="#648FFF"/>
<path d="M98.9028 246C111.498 245.957 121.675 235.597 121.632 222.86C121.589 210.122 111.344 199.832 98.7488 199.875C86.1533 199.918 75.9773 210.278 76.0199 223.015C76.0626 235.752 86.3076 246.043 98.9028 246ZM103.054 208.769C103.047 206.38 101.125 204.451 98.764 204.46C96.4026 204.467 94.4944 206.41 94.5023 208.798L103.054 208.769ZM94.4076 180.491C94.4156 182.879 96.3361 184.808 98.6984 184.8C101.06 184.792 102.968 182.85 102.959 180.461L94.4076 180.491ZM102.865 152.154C102.857 149.766 100.936 147.836 98.5749 147.844C96.2126 147.853 94.3049 149.795 94.313 152.183L102.865 152.154ZM94.2182 123.875C94.2262 126.263 96.147 128.193 98.5084 128.185C100.871 128.176 102.779 126.234 102.77 123.846L94.2182 123.875ZM103.102 222.923L103.054 208.769L94.5023 208.798L94.5497 222.952L103.102 222.923ZM102.959 180.461L102.865 152.154L94.313 152.183L94.4076 180.491L102.959 180.461ZM102.77 123.846L102.723 109.692L94.1708 109.722L94.2182 123.875L102.77 123.846Z" fill="#648FFF"/>
</g>
<defs>
<clipPath id="clip0_19_1952">
<rect width="191" height="246" fill="white"/>
</clipPath>
</defs>
</svg>
